<?xml version="1.0" encoding="UTF-8"?>
<svg width="96px" height="96px" viewBox="0 0 96 96" version="1.1" xmlns="http://www.w3.org/2000/svg" xmlns:xlink="http://www.w3.org/1999/xlink">
    <!-- Generator: Sketch 46.2 (44496) - http://www.bohemiancoding.com/sketch -->
    <title>icn_delete</title>
    <desc>Created with Sketch.</desc>
    <defs></defs>
    <g id="Page-1" stroke="none" stroke-width="1" fill="none" fill-rule="evenodd">
        <g id="The-Zemoga-Process" transform="translate(-576.000000, -501.000000)" fill="#000000">
            <g id="icn_delete" transform="translate(576.000000, 501.000000)">
                <path fill="#1640D3" d="M48,0.5 C21.801,0.5 0.5,21.801 0.5,48 C0.5,74.199 21.801,95.5 48,95.5 C74.199,95.5 95.5,74.199 95.5,48 C95.5,21.801 74.199,0.5 48,0.5 Z M48,87.102 C26.398,87.102 8.898,69.602 8.898,48 C8.898,26.39799 26.398,8.89799 48,8.89799 C69.602,8.89799 87.102,26.39799 87.102,48 C87.102,69.602 69.602,87.102 48,87.102 Z" id="Fill-1"></path>
                <path fill="#1640D3" d="M70.898,32.199 L63.7964,25.0974 C62.99562,24.29662 61.7964,24.29662 60.9956,25.0974 L47.9956,38.0974 L34.9956,25.0974 C34.19482,24.29662 32.9956,24.29662 32.1948,25.0974 L25.0932,32.199 C24.29242,32.99978 24.29242,34.199 25.0932,34.9998 L38.0932,47.9998 L25.0932,60.9998 C24.29242,61.80058 24.29242,62.9998 25.0932,63.8006 L32.1948,70.9022 C32.99558,71.70298 34.1948,71.70298 34.9956,70.9022 L47.9956,57.9022 L60.9956,70.9022 C61.79638,71.70298 62.9956,71.70298 63.7964,70.9022 L70.898,63.8006 C71.69878,62.99982 71.69878,61.8006 70.898,60.9998 L57.898,47.9998 L70.898,34.9998 C71.69878,34.19902 71.69878,32.9998 70.898,32.199 Z" id="Fill-2"></path>
            </g>
        </g>
    </g>
</svg>