<?xml version="1.0" encoding="UTF-8"?>
<svg width="95px" height="95px" viewBox="0 0 95 95" version="1.1" xmlns="http://www.w3.org/2000/svg" xmlns:xlink="http://www.w3.org/1999/xlink">
    <!-- Generator: Sketch 46.2 (44496) - http://www.bohemiancoding.com/sketch -->
    <title>icn_like</title>
    <desc>Created with Sketch.</desc>
    <defs></defs>
    <g id="Page-1" stroke="none" stroke-width="1" fill="none" fill-rule="evenodd">
        <g id="The-Zemoga-Process" transform="translate(-448.000000, -502.000000)" fill="#000000">
            <g id="icn_like" transform="translate(448.000000, 502.000000)">
                <path fill="#FC4553" d="M47.5,0 C21.301,0 0,21.301 0,47.5 C0,73.699 21.301,95 47.5,95 C73.699,95 95,73.699 95,47.5 C95,21.301 73.699,0 47.5,0 Z M47.5,86.602 C25.898,86.602 8.398,69.102 8.398,47.5 C8.398,25.89799 25.898,8.39799 47.5,8.39799 C69.102,8.39799 86.602,25.89799 86.602,47.5 C86.602,69.102 69.102,86.602 47.5,86.602 Z" id="Fill-1"></path>
                <path fill="#FC4553" d="M35.0595946,27 C26.0886486,27 20,33.9851547 20,42.8779219 C20,58.1220781 31.7841216,64.4729531 47.5,74 C63.2158784,64.4729531 75,58.1220781 75,42.8779219 C75,33.985375 68.9117973,27 59.9404054,27 C54.165777,27 49.4190541,30.1755844 47.5,32.0804062 C45.5809459,30.1755844 40.834,27 35.0595946,27 Z" id="Page-1"></path>
            </g>
        </g>
    </g>
</svg>