<?xml version="1.0" encoding="UTF-8"?>
<svg width="100px" height="100px" viewBox="0 0 100 100" version="1.1" xmlns="http://www.w3.org/2000/svg" xmlns:xlink="http://www.w3.org/1999/xlink">
    <!-- Generator: Sketch 46.2 (44496) - http://www.bohemiancoding.com/sketch -->
    <title>icn_happy</title>
    <desc>Created with Sketch.</desc>
    <defs></defs>
    <g id="Page-1" stroke="none" stroke-width="1" fill="none" fill-rule="evenodd">
        <g id="The-Zemoga-Process" transform="translate(-705.000000, -505.000000)" fill="#000000">
            <g id="icn_happy" transform="translate(705.000000, 505.000000)">
                <path d="M50.012,79.168 C38.867,79.168 27.438,73.418 21.574,64.856 C20.2732,62.9537 20.75759,60.3638 22.656,59.063 C24.5622,57.7661 27.1482,58.24659 28.449,60.145 C32.7576,66.438 41.625,70.833 50.011,70.833 C58.397,70.833 67.265,66.4385 71.573,60.145 C72.8738,58.2466 75.4597,57.7622 77.366,59.063 C79.2644,60.3638 79.7488,62.9536 78.448,64.856 C72.5847,73.4185 61.155,79.168 50.01,79.168" id="Fill-1"></path>
                <path d="M50.012,8.332 C27.035,8.332 8.344002,27.023 8.344002,50 C8.344002,72.977 27.035,91.667998 50.012,91.667998 C72.985,91.667998 91.68,72.977 91.68,50 C91.68,27.023 72.985,8.332 50.012,8.332 M50.012,100 C22.442,100 0.01200104,77.57 0.01200104,50 C0.01200104,22.43 22.442,0 50.012,0 C77.582,0 100.012,22.43 100.012,50 C100.012,77.57 77.582,100 50.012,100" id="Fill-2"></path>
                <path d="M62.512,45.832 C62.06278,45.832 61.60575,45.75778 61.1643,45.60934 C59.5705,45.06637 58.4573,43.61324 58.3518,41.92964 C58.13305,38.48044 59.13305,34.55074 61.0276,31.42564 C63.3831,27.52724 66.7737,25.24984 70.5823,25.00764 C72.8323,24.85139 74.8518,26.60534 75.0042,28.90214 C75.14873,31.19514 73.4065,33.17944 71.1058,33.32404 C70.20346,33.38263 69.4066,34.08185 68.848,34.75764 C71.8949,34.87483 75.0277,36.12874 77.7621,38.54284 C79.4926,40.05844 79.6566,42.69124 78.14101,44.42174 C76.60981,46.14444 73.98481,46.31624 72.25821,44.79283 C71.34415,43.99205 68.15271,41.56233 65.64101,44.42174 C64.83632,45.3319 63.68791,45.83194 62.51211,45.83194" id="Fill-3"></path>
                <path d="M37.465,45.832 C36.2931,45.832 35.1408,45.332 34.3361,44.4218 C31.8244,41.5624 28.633,43.9843 27.7189,44.79289 C25.9962,46.31629 23.3634,46.14449 21.8361,44.4218 C20.3205,42.6913 20.4884,40.0585 22.21501,38.5429 C24.94941,36.1288 28.08221,34.8749 31.12911,34.7577 C30.57052,34.08192 29.77361,33.3827 28.87131,33.3241 C26.57051,33.17957 24.82831,31.1952 24.97291,28.9022 C25.12525,26.6053 27.11741,24.8592 29.39481,25.0077 C33.20341,25.24989 36.59401,27.5272 38.94951,31.4257 C40.84401,34.5507 41.84401,38.4804 41.62531,41.9297 C41.51984,43.6133 40.40651,45.0664 38.81281,45.6094 C38.3714,45.75784 37.91828,45.83206 37.46511,45.83206" id="Fill-4"></path>
            </g>
        </g>
    </g>
</svg>