<?xml version="1.0" encoding="UTF-8"?>
<svg width="100px" height="100px" viewBox="0 0 100 100" version="1.1" xmlns="http://www.w3.org/2000/svg" xmlns:xlink="http://www.w3.org/1999/xlink">
    <!-- Generator: Sketch 46.2 (44496) - http://www.bohemiancoding.com/sketch -->
    <title>icn_sad</title>
    <desc>Created with Sketch.</desc>
    <defs></defs>
    <g id="Page-1" stroke="none" stroke-width="1" fill="none" fill-rule="evenodd">
        <g id="The-Zemoga-Process" transform="translate(-834.000000, -505.000000)" fill="#000000">
            <g id="icn_sad" transform="translate(834.000000, 505.000000)">
                <path d="M91.668,50 C91.668,73.012 73.012,91.667999 50,91.667999 C26.988,91.667999 8.332001,73.012 8.332001,50 C8.332001,26.988 26.988,8.332 50,8.332 C73.012,8.332 91.668,26.988 91.668,50 Z M100,50 C100,22.387 77.613,0 50,0 C22.387,0 0,22.387 0,50 C0,77.613 22.387,100 50,100 C77.613,100 100,77.613 100,50 Z" id="Fill-1"></path>
                <path d="M25,41.668 C25,39.3633 26.8633,37.5 29.168,37.5 C31.4688,37.5 33.3321,39.3633 33.3321,41.668 C33.3321,43.9688 35.1993,45.8321 37.5001,45.8321 C39.8009,45.8321 41.6681,43.9688 41.6681,41.668 C41.6681,34.7618 36.0704,29.168 29.1681,29.168 C22.2619,29.168 16.6681,34.7618 16.6681,41.668 C16.6681,43.9688 18.5314,45.8321 20.8322,45.8321 C23.133,45.8321 25.0002,43.9688 25.0002,41.668 L25,41.668 Z" id="Fill-2"></path>
                <path d="M66.668,41.668 C66.668,39.3633 68.5313,37.5 70.8321,37.5 C73.1368,37.5 75.0001,39.3633 75.0001,41.668 C75.0001,43.9688 76.8673,45.8321 79.1681,45.8321 C81.4689,45.8321 83.3322,43.9688 83.3322,41.668 C83.3322,34.7618 77.7384,29.168 70.8322,29.168 C63.9299,29.168 58.3322,34.7618 58.3322,41.668 C58.3322,43.9688 60.1994,45.8321 62.5002,45.8321 C64.801,45.8321 66.6682,43.9688 66.6682,41.668 L66.668,41.668 Z" id="Fill-3"></path>
                <path d="M30.453,72.32 C33.5585,64.1872 41.625,58.336 50,58.336 C58.3711,58.336 66.438,64.1837 69.543,72.313 C70.36722,74.4653 72.7735,75.5396 74.9258,74.7192 C77.0742,73.89889 78.1485,71.4887 77.3281,69.3403 C73.0156,58.0553 61.9101,50.0003 50.0001,50.0003 C38.0861,50.0003 26.9771,58.0589 22.6681,69.3483 C21.84779,71.5006 22.92591,73.9069 25.0783,74.7272 C27.2267,75.54751 29.633,74.46939 30.4533,72.321 L30.453,72.32 Z" id="Fill-4"></path>
            </g>
        </g>
    </g>
</svg>